<?xml version="1.0" encoding="UTF-8"?><svg id="Layer_1" xmlns="http://www.w3.org/2000/svg" xmlns:xlink="http://www.w3.org/1999/xlink" viewBox="0 0 976.74 174.72"><defs><style>.cls-1{fill:url(#linear-gradient);}.cls-1,.cls-2{stroke-width:0px;}</style><linearGradient id="linear-gradient" x1="-4.94" y1="8.62" x2="156.33" y2="169.88" gradientUnits="userSpaceOnUse"><stop offset="0" stop-color="#e52680"/><stop offset=".5" stop-color="#ea695f"/><stop offset="1" stop-color="#f3c000"/></linearGradient></defs><path class="cls-1" d="m76.7,136.24h0v7.51h-7.57v-7.57h-1.03s-2.34,4.14-3.56,8.62c-3.72,13.7.57,25.69.91,26.7.34,1.01.87,1.18,1.62.49,5.94-5.46,10.87-11.52,13.47-16.97,2.94-6.15,3.73-11.26,3.73-11.26v-7.51h0v-7.57h-7.57v7.57Zm60.98-9.54c9.94,7.54,23.81,9.63,24.87,9.71,1.06.07,1.43-.35,1.07-1.31-2.77-7.58-7.39-15.71-11.42-20.21-4.55-5.07-10.77-9-10.77-9h-4.14v7.57h-7.58v7.57s4.27,2.86,7.97,5.67Zm-21.29,17.97c5.77,11.06,17.43,18.87,18.35,19.39.93.52,1.44.3,1.53-.73.73-8.04-.61-17.66-2.34-23.45-1.95-6.52-5.36-11.28-5.36-11.28h-6.43v7.57h-7.57s-.32,4.38,1.82,8.49Zm13.32-31.21v-7.57h-7.57v7.57h7.57Zm-98.45-13.78v-1.37h7.57v-7.57h-7.57v-8.33s-2.73-.54-5.42-.28c-14.71,1.43-24.31,8.32-25.15,8.96-.85.64-.95.81-.05,1.31,7.06,3.92,13.22,6.8,22.5,7.36,6.7.4,8.13-.08,8.13-.08Zm22.72,28.92h-8.48s-2.78,2.64-5.48,6.42c-7.26,10.15-7.08,20.89-7.12,21.95-.04,1.06.39,1.41,1.34,1.03,7.5-2.98,14.59-7.2,18.97-11.37,4.94-4.69,8.35-10.46,8.35-10.46h-7.57v-7.57Zm0-15.15h-7.57v-7.57h-7.57v7.57h-7.57v-5.57s-.84.06-1.8.73c-14.53,10.1-16.01,17.61-16.45,18.57-.44.97-.18,1.45.85,1.46,8.07.09,16.07-1.3,29.25-7.04,6.24-2.72,10.87-8.16,10.87-8.16Zm-32.19-40.53c6.41,2.29,17.04,2.66,17.04,2.66v-.02s.02,0,.02,0v-7.56h7.55v-.02h.02v-5.91s-12.1-5.62-18.08-6.15c-12.43-1.1-25.53,2.87-26.5,3.31-.25.11-.45.23-.59.35-.44.36-.42.76.16,1.27,6.04,5.35,14.69,10.02,20.37,12.05Zm77.63,78.4v-7.57h-8.27s-.04,3.36.81,7.92c2.29,12.27,10.81,21.75,11.55,22.51.74.76,1.29.7,1.67-.25,3.05-7.47,4.92-13.94,4.96-19.98.03-6.81-1.1-10.21-1.1-10.21h-2.04v7.57h-7.57Zm-30.29-98.47h.02v-7.57h-7.57v.02h-.02v7.57h7.57v-.02Zm.02-22.72v-7.56h2.77s0,0,0-.02h.02s-.26-1.93-2.96-5.71C61.73,6.69,49.1.57,48.11.18c-.62-.24-1.05-.26-1.27.02-.14.16-.21.43-.19.82.39,8.06,3.07,17.52,5.58,23.01,2.83,6.19,9.31,13.7,9.31,13.7v-.03s.02.02.02.02v-7.56h7.56v-.02h.02Zm102.77,48.09c-1.52-1.08-19.61-15.02-29.99-17.49-10.38-2.47-15.38.8-16.97,1.72-1.6.92-2.55,1.54-3.56,1.6-1,.06-1.92-1.04-1.36-2.27,0,0,2.3.39,4.15-2.04,1.4-1.84,1.28-3.99,1.28-3.99,0-.11-.04-.25-.09-.4l12.21-7.01c.2.15.41.28.64.38,1.54.65,3.31-.08,3.95-1.62s-.08-3.31-1.62-3.95c-1.54-.65-3.31.08-3.95,1.62-.21.5-.26,1.02-.2,1.52l-12.31,7.07c-.33-.38-.7-.73-1.09-1.03l6.98-10.95c.24.04.49.06.74.04,1.66-.14,2.9-1.6,2.75-3.26-.14-1.66-1.6-2.9-3.26-2.75-1.66.14-2.9,1.6-2.75,3.26.05.54.24,1.02.52,1.44l-7.17,11.25c-1.37-.26-2.49.04-4.5,1.85-1.49,1.34-1.58,3.17-1.56,3.3,0,0-1.2.24-2.1-.12-.9-.36-1.68-1.86-.66-3,1.02-1.14,7.13-7.13,1.2-21.09-5.93-13.96-8.68-15.93-17.19-28.57-1.04-1.55-3.59-.72-3.71,1.2-.12,1.92.36,13-.3,17.25-.66,4.25-3.83,6.23-4.73,7.25-.9,1.02-1.62,3.4.72,3.41,2.34,0,3.84,0,3.84,0v4.89h-15.13v15.15h-7.57v7.57h-7.57v-7.57h-7.57v15.15h7.57v7.57h-7.57v-7.57h-7.57v7.56h-7.56v.02h-.02v7.58h7.57s0,0,0,0h0s.01-.01.01-.01h0s0,0,0,0v-7.56h7.56v7.57h-7.57v7.58h7.57v7.56h-7.57v7.57h7.57s7.57.01,7.57.01v-7.58h7.57v7.58h-7.57v15.15h7.57v7.57h7.56s.01-7.57.01-7.57h7.57v7.57h7.57v7.57h7.57v-7.57h7.57v7.57h7.57v-15.15h7.57v-7.57h-7.57v-7.57h7.57v-7.58h7.57v.02h7.59v-7.59h7.59v-7.59h9.49s3-1.81,6.15-2.21c3.16-.4,8.07.48,9.11.68,1.04.2,2.6.04,3-.6.4-.64.8-1.72-.72-2.8Zm-72.49-17.78h7.56v7.56h-7.56v-7.56Zm-7.58,15.15h7.56v7.56h-7.56v-7.56Zm-7.58-30.28h7.56v7.55h-7.56s0-7.55,0-7.55Zm-7.57,37.84v7.62l-7.57-.03v-7.59h7.57v-7.56h-7.57v-7.57h7.57v-7.57h15.13v.23h.01v7.34h-7.57v15.15h-7.57Zm30.29,15.16h-7.57v7.58h7.57v7.57h-7.57v-7.57h-15.15v-7.59h7.57s0-7.56,0-7.56h15.15v7.57Zm7.56-15.16h-7.56v-7.56h7.56v7.56Zm22.75,7.59h-7.59v-7.59h7.59v7.59Zm-60.58-53.03v-7.57h-7.57v.02h-.02v7.57h7.57v-.02h.02Zm22.7,106.04h7.57v-7.57h-7.57v7.57ZM54,52.86v-13.3s-4.42-4.9-8.13-7.68c-9.98-7.49-23.87-9.49-24.93-9.56-.53-.03-.89.06-1.07.28-.19.22-.2.56-.01,1.06,2.81,7.56,8.18,15.67,12.24,20.13,4.58,5.04,10.04,9.09,10.04,9.09h11.85v-.02h.02Zm-.02,75.75h7.57v-7.57h-7.57v7.57Z"/><path class="cls-2" d="m245.29,30.07c4.03,2.36,7.24,5.57,9.64,9.64,2.4,4.07,3.59,8.54,3.59,13.4s-1.2,9.22-3.59,13.29c-2.4,4.07-5.63,7.3-9.69,9.69-4.07,2.4-8.5,3.59-13.29,3.59h-12.66v26.69h-17.11V26.54h29.77c4.87,0,9.31,1.18,13.34,3.54Zm-13.34,33.3c2.81,0,5.23-1.01,7.24-3.02,2.01-2.01,3.02-4.43,3.02-7.24s-.99-5.32-2.97-7.3c-1.98-1.98-4.41-2.97-7.3-2.97h-12.66v20.53h12.66Z"/><path class="cls-2" d="m275.37,104.04c-4.6-2.7-8.25-6.37-10.95-11.01-2.7-4.64-4.05-9.66-4.05-15.06s1.35-10.51,4.05-15.11c2.7-4.6,6.35-8.25,10.95-10.95,4.6-2.7,9.64-4.05,15.11-4.05s10.4,1.35,15,4.05c4.6,2.7,8.25,6.35,10.95,10.95,2.7,4.6,4.05,9.64,4.05,15.11s-1.35,10.42-4.05,15.06c-2.7,4.64-6.35,8.31-10.95,11.01-4.6,2.7-9.6,4.05-15,4.05s-10.51-1.35-15.11-4.05Zm24.81-16.31c2.74-2.7,4.11-5.95,4.11-9.75s-1.37-7.07-4.11-9.81c-2.74-2.74-6.01-4.11-9.81-4.11s-7.05,1.37-9.75,4.11c-2.7,2.74-4.05,6.01-4.05,9.81s1.35,7.05,4.05,9.75c2.7,2.7,5.95,4.05,9.75,4.05s7.07-1.35,9.81-4.05Z"/><path class="cls-2" d="m344.77,68.45c1.6.65,4.14,1.31,7.64,2,4.49.91,8.21,1.92,11.18,3.02,2.97,1.1,5.57,2.93,7.81,5.47,2.24,2.55,3.36,6.06,3.36,10.55,0,3.88-1.18,7.21-3.54,9.98-2.36,2.78-5.47,4.87-9.35,6.27-3.88,1.41-8.06,2.11-12.55,2.11-6.16,0-11.41-1.12-15.74-3.36s-7.6-5.57-9.81-9.98l13.34-6.84c1.82,4.87,5.89,7.3,12.2,7.3,2.58,0,4.85-.47,6.79-1.43,1.94-.95,2.91-2.3,2.91-4.05,0-1.52-.89-2.66-2.68-3.42-1.79-.76-4.62-1.56-8.5-2.4-4.41-.99-8.1-2.03-11.06-3.14-2.97-1.1-5.51-2.81-7.64-5.13-2.13-2.32-3.19-5.42-3.19-9.3s1.06-6.98,3.19-9.75c2.13-2.77,5-4.88,8.61-6.33,3.61-1.44,7.55-2.17,11.8-2.17,5.02,0,9.54,1.03,13.57,3.08,4.03,2.05,7.19,5.02,9.47,8.9l-13.23,6.5c-.91-1.9-2.15-3.31-3.71-4.22-1.56-.91-3.59-1.37-6.1-1.37-2.21,0-3.95.44-5.25,1.31-1.29.88-1.94,2.04-1.94,3.48,0,1.29.8,2.26,2.4,2.91Z"/><path class="cls-2" d="m405.16,90.52c1.18.84,2.98,1.25,5.42,1.25,1.52,0,3.19-.11,5.02-.34v14.94c-3.8.38-6.96.57-9.47.57-6.39,0-11.16-1.43-14.31-4.28-3.16-2.85-4.73-8.04-4.73-15.57v-23.27h-9.81v-14.48h9.81v-13.23l16.31-5.47v18.7h11.98v14.48h-11.98v22.24c0,2.13.59,3.61,1.77,4.45Z"/><path class="cls-2" d="m475.39,95.2c-2.81,3.95-6.37,7.09-10.66,9.41-4.3,2.32-8.92,3.48-13.86,3.48-5.47,0-10.51-1.35-15.11-4.05-4.6-2.7-8.25-6.37-10.95-11.01-2.7-4.64-4.05-9.66-4.05-15.06s1.35-10.51,4.05-15.11c2.7-4.6,6.35-8.25,10.95-10.95,4.6-2.7,9.64-4.05,15.11-4.05,4.94,0,9.54,1.14,13.8,3.42,4.26,2.28,7.79,5.36,10.61,9.24l-13.46,8.9c-3.19-3.57-6.84-5.36-10.95-5.36-3.8,0-7.07,1.37-9.81,4.11-2.74,2.74-4.11,6.01-4.11,9.81s1.37,7.05,4.11,9.75c2.74,2.7,6.01,4.05,9.81,4.05,4.11,0,7.76-1.79,10.95-5.36l13.57,8.78Z"/><path class="cls-2" d="m523.66,49.35h16.2v57.03h-16.2v-4.33c-2.51,1.9-5.27,3.36-8.27,4.39-3,1.03-6.03,1.54-9.07,1.54-5.93,0-11.05-1.29-15.34-3.88s-7.58-6.14-9.86-10.66c-2.28-4.52-3.42-9.67-3.42-15.45s1.14-10.97,3.42-15.57c2.28-4.6,5.57-8.19,9.86-10.78,4.29-2.58,9.41-3.88,15.34-3.88,3.12,0,6.16.53,9.12,1.6,2.96,1.07,5.7,2.55,8.21,4.45v-4.45Zm-4.45,39.01c2.89-2.74,4.33-6.27,4.33-10.61s-1.45-7.6-4.33-10.26c-2.89-2.66-6.46-3.99-10.72-3.99s-7.76,1.33-10.49,3.99c-2.74,2.66-4.11,6.16-4.11,10.49s1.37,7.83,4.11,10.49c2.74,2.66,6.23,3.99,10.49,3.99s7.83-1.37,10.72-4.11Z"/><path class="cls-2" d="m587.08,48.21l-1.14,15.4c-.53-.23-1.41-.34-2.62-.34-4.64,0-8.42,1.31-11.35,3.94-2.93,2.62-4.39,6.06-4.39,10.32v28.85h-16.31v-57.03h16.31v9.24c1.37-2.97,3.57-5.44,6.62-7.41,3.04-1.98,6.73-2.97,11.06-2.97h1.83Z"/><path class="cls-2" d="m635.33,26.54h16.2v79.84h-16.2v-4.33c-2.51,1.9-5.23,3.36-8.16,4.39-2.93,1.03-5.95,1.54-9.07,1.54-5.93,0-11.05-1.29-15.34-3.88-4.3-2.58-7.58-6.14-9.87-10.66-2.28-4.52-3.42-9.67-3.42-15.45s1.14-10.97,3.42-15.57c2.28-4.6,5.57-8.19,9.87-10.78,4.29-2.58,9.41-3.88,15.34-3.88,3.04,0,6.04.51,9.01,1.54,2.96,1.03,5.7,2.49,8.21,4.39v-27.14Zm-4.33,61.82c2.89-2.74,4.33-6.27,4.33-10.61s-1.45-7.6-4.33-10.26c-2.89-2.66-6.46-3.99-10.72-3.99s-7.76,1.33-10.49,3.99c-2.74,2.66-4.11,6.16-4.11,10.49s1.37,7.83,4.11,10.49c2.74,2.66,6.23,3.99,10.49,3.99s7.83-1.37,10.72-4.11Z"/><path class="cls-2" d="m726.13,26.65v-.11h17.11v79.84h-17.11v-48.36l-20.3,33.99h-4.22l-20.42-34.1v48.47h-17.11V26.54h17.11v.11l.23-.11,22.24,37.41,22.24-37.41.23.11Z"/><path class="cls-2" d="m799.16,49.35h16.2v57.03h-16.2v-4.33c-2.51,1.9-5.27,3.36-8.27,4.39-3,1.03-6.03,1.54-9.07,1.54-5.93,0-11.05-1.29-15.34-3.88-4.3-2.58-7.58-6.14-9.87-10.66-2.28-4.52-3.42-9.67-3.42-15.45s1.14-10.97,3.42-15.57c2.28-4.6,5.57-8.19,9.87-10.78,4.29-2.58,9.41-3.88,15.34-3.88,3.12,0,6.16.53,9.12,1.6,2.96,1.07,5.7,2.55,8.21,4.45v-4.45Zm-4.45,39.01c2.89-2.74,4.33-6.27,4.33-10.61s-1.45-7.6-4.33-10.26c-2.89-2.66-6.46-3.99-10.72-3.99s-7.76,1.33-10.49,3.99c-2.74,2.66-4.11,6.16-4.11,10.49s1.37,7.83,4.11,10.49c2.74,2.66,6.23,3.99,10.49,3.99s7.83-1.37,10.72-4.11Z"/><path class="cls-2" d="m867.03,49.92c3.42,1.45,6.35,3.99,8.78,7.64,2.43,3.65,3.65,8.55,3.65,14.71v34.1h-16.31v-34.1c0-3.65-1.01-6.27-3.02-7.87-2.02-1.6-4.43-2.4-7.24-2.4s-5.15.99-7.01,2.97c-1.86,1.98-2.79,5.13-2.79,9.47v31.93h-16.31v-57.03h16.31v3.88c4.33-3.65,8.93-5.47,13.8-5.47,3.35,0,6.73.72,10.15,2.17Z"/><path class="cls-2" d="m891.12,39.14c-1.71-1.63-2.57-3.86-2.57-6.67s.86-5.17,2.57-6.84c1.71-1.67,4.09-2.51,7.13-2.51s5.32.84,7.07,2.51c1.75,1.67,2.62,3.95,2.62,6.84s-.88,5.04-2.62,6.67c-1.75,1.64-4.11,2.45-7.07,2.45s-5.42-.82-7.13-2.45Zm-1.08,67.23v-57.03h16.31v57.03h-16.31Z"/><path class="cls-2" d="m960.54,49.35h16.2v57.03h-16.2v-4.33c-2.51,1.9-5.27,3.36-8.27,4.39-3,1.03-6.03,1.54-9.07,1.54-5.93,0-11.05-1.29-15.34-3.88-4.3-2.58-7.58-6.14-9.87-10.66-2.28-4.52-3.42-9.67-3.42-15.45s1.14-10.97,3.42-15.57c2.28-4.6,5.57-8.19,9.87-10.78,4.29-2.58,9.41-3.88,15.34-3.88,3.12,0,6.16.53,9.12,1.6,2.96,1.07,5.7,2.55,8.21,4.45v-4.45Zm-4.45,39.01c2.89-2.74,4.33-6.27,4.33-10.61s-1.45-7.6-4.33-10.26c-2.89-2.66-6.46-3.99-10.72-3.99s-7.76,1.33-10.49,3.99c-2.74,2.66-4.11,6.16-4.11,10.49s1.37,7.83,4.11,10.49c2.74,2.66,6.23,3.99,10.49,3.99s7.83-1.37,10.72-4.11Z"/><path class="cls-2" d="m221.8,123.12v-.07h4.68v25.22h-4.68v-16.64l-6.99,11.71h-1.15l-6.99-11.71v16.64h-4.72v-25.22h4.72v.07l.11-.07,7.46,12.57,7.46-12.57.11.07Z"/><path class="cls-2" d="m248.44,123.04h4.72v16.72c0,1.75-.42,3.31-1.26,4.67-.84,1.36-1.99,2.41-3.46,3.17-1.47.76-3.12,1.13-4.97,1.13s-3.51-.38-4.97-1.13c-1.47-.76-2.62-1.81-3.46-3.17-.84-1.36-1.26-2.91-1.26-4.67v-16.72h4.72v16.72c0,1.3.47,2.34,1.42,3.12s2.13,1.17,3.55,1.17c1.51,0,2.72-.38,3.62-1.15.9-.77,1.35-1.81,1.35-3.13v-16.72Z"/><path class="cls-2" d="m265.13,123.04v20.75h10.63v4.47h-15.35v-25.22h4.72Z"/><path class="cls-2" d="m294.56,123.04v4.47h-6.95v20.75h-4.68v-20.75h-6.92v-4.47h18.55Z"/><path class="cls-2" d="m299.34,148.26v-25.22h4.68v25.22h-4.68Z"/><path class="cls-2" d="m319.2,137.85h-8.65v-3.78h8.65v3.78Z"/><path class="cls-2" d="m326.8,129.2c1.16-1.99,2.74-3.57,4.74-4.74,1.99-1.17,4.17-1.75,6.52-1.75s4.62.62,6.67,1.86c2.04,1.24,3.61,2.88,4.72,4.92l-4.14,2.2c-.72-1.27-1.73-2.3-3.03-3.08-1.3-.78-2.7-1.17-4.22-1.17s-2.88.37-4.16,1.12c-1.29.75-2.3,1.75-3.04,3.03-.74,1.27-1.12,2.65-1.12,4.14s.37,2.87,1.12,4.14c.74,1.27,1.76,2.28,3.04,3.03,1.28.75,2.67,1.12,4.16,1.12s2.98-.4,4.27-1.19c1.28-.79,2.29-1.85,3.01-3.17l4.14,2.27c-1.1,2.07-2.68,3.72-4.72,4.95s-4.27,1.86-6.7,1.86-4.53-.58-6.52-1.75c-1.99-1.16-3.57-2.74-4.74-4.74-1.17-1.99-1.75-4.17-1.75-6.52s.58-4.53,1.75-6.52Z"/><path class="cls-2" d="m371.49,133.13v-10.09h4.68v25.22h-4.68v-10.7h-11.64v10.7h-4.72v-25.22h4.72v10.09h11.64Z"/><path class="cls-2" d="m404.65,148.26h-5.01l-1.87-5.08h-9.98l-1.87,5.08h-5.04l9.37-25.22h5.04l9.37,25.22Zm-11.85-18.48l-3.35,8.93h6.66l-3.31-8.93Z"/><path class="cls-2" d="m424.31,138.89v-15.85h4.72v25.22h-4.03l-10.95-17.08v17.08h-4.72v-25.22h4.72l10.27,15.85Z"/><path class="cls-2" d="m451.44,138.89v-15.85h4.72v25.22h-4.03l-10.95-17.08v17.08h-4.72v-25.22h4.72l10.27,15.85Z"/><path class="cls-2" d="m468.3,137.67v6.12h10.56v4.47h-15.27v-25.22h15.09v4.47h-10.38v5.73h9.47v4.43h-9.47Z"/><path class="cls-2" d="m490.05,123.04v20.75h10.63v4.47h-15.35v-25.22h4.72Z"/><path class="cls-2" d="m537.24,123.12v-.07h4.68v25.22h-4.68v-16.64l-6.99,11.71h-1.15l-6.99-11.71v16.64h-4.72v-25.22h4.72v.07l.11-.07,7.46,12.57,7.46-12.57.11.07Z"/><path class="cls-2" d="m570.41,148.26h-5.01l-1.87-5.08h-9.98l-1.87,5.08h-5.04l9.37-25.22h5.04l9.37,25.22Zm-11.85-18.48l-3.35,8.93h6.67l-3.31-8.93Z"/><path class="cls-2" d="m589.41,148.26l-4.93-8.72h-4.68v8.72h-4.72v-25.22h10.23c1.49,0,2.87.37,4.14,1.1,1.27.73,2.28,1.74,3.01,3.01.73,1.27,1.1,2.65,1.1,4.14s-.38,2.94-1.15,4.21c-.77,1.27-1.8,2.27-3.1,2.99l5.48,9.76h-5.37Zm-9.62-20.75v7.53h5.51c1.03,0,1.92-.37,2.67-1.1.74-.73,1.12-1.62,1.12-2.65s-.37-1.95-1.1-2.68c-.73-.73-1.63-1.1-2.68-1.1h-5.51Z"/><path class="cls-2" d="m621.34,148.22l-5.87.04-8.03-10.05-2.49,2.88v7.17h-4.72v-25.22h4.72v10.81l9.47-10.81h6.05l-9.91,11.53,10.77,13.65Z"/><path class="cls-2" d="m630.64,137.67v6.12h10.56v4.47h-15.28v-25.22h15.09v4.47h-10.38v5.73h9.47v4.43h-9.47Z"/><path class="cls-2" d="m663.84,123.04v4.47h-6.95v20.75h-4.68v-20.75h-6.92v-4.47h18.55Z"/><path class="cls-2" d="m668.63,148.26v-25.22h4.68v25.22h-4.68Z"/><path class="cls-2" d="m695.71,138.89v-15.85h4.72v25.22h-4.04l-10.95-17.08v17.08h-4.72v-25.22h4.72l10.27,15.85Z"/><path class="cls-2" d="m718.57,134.93h13.58v2.09c0,2.11-.57,4.07-1.71,5.85s-2.68,3.21-4.63,4.27c-1.95,1.06-4.06,1.59-6.34,1.59s-4.53-.58-6.52-1.75c-1.99-1.16-3.57-2.74-4.74-4.74-1.17-1.99-1.75-4.17-1.75-6.52s.58-4.53,1.75-6.52c1.17-1.99,2.74-3.57,4.74-4.74,1.99-1.17,4.17-1.75,6.52-1.75,2.16,0,4.17.5,6.03,1.51s3.38,2.37,4.56,4.07l-3.71,2.88c-.74-1.13-1.73-2.04-2.95-2.72s-2.53-1.03-3.93-1.03c-1.49,0-2.88.37-4.16,1.12-1.29.75-2.3,1.75-3.04,3.03-.74,1.27-1.12,2.65-1.12,4.14s.37,2.87,1.12,4.14c.74,1.27,1.76,2.28,3.04,3.03,1.29.75,2.67,1.12,4.16,1.12,1.73,0,3.25-.42,4.56-1.26,1.31-.84,2.25-1.96,2.83-3.35h-8.29v-4.47Z"/><path class="cls-2" d="m754.3,137.67v6.12h10.56v4.47h-15.28v-25.22h15.09v4.47h-10.38v5.73h9.47v4.43h-9.47Z"/><path class="cls-2" d="m783.86,135.62l8.18,12.64h-5.62l-5.84-9.04-5.84,9.04h-5.62l8.18-12.64-8.14-12.57h5.62l5.8,8.97,5.8-8.97h5.62l-8.14,12.57Z"/><path class="cls-2" d="m810.23,124.14c1.27.73,2.27,1.74,3.01,3.01.73,1.27,1.1,2.65,1.1,4.14s-.37,2.86-1.1,4.12c-.73,1.26-1.74,2.26-3.01,3.01-1.27.75-2.65,1.12-4.14,1.12h-4.47v8.72h-4.72v-25.22h9.19c1.49,0,2.87.37,4.14,1.1Zm-4.14,10.9c1.03,0,1.92-.37,2.65-1.1s1.1-1.62,1.1-2.65-.37-1.92-1.1-2.67c-.73-.74-1.62-1.12-2.65-1.12h-4.47v7.53h4.47Z"/><path class="cls-2" d="m824.39,137.67v6.12h10.56v4.47h-15.28v-25.22h15.09v4.47h-10.38v5.73h9.47v4.43h-9.47Z"/><path class="cls-2" d="m855.76,148.26l-4.93-8.72h-4.68v8.72h-4.72v-25.22h10.23c1.49,0,2.87.37,4.14,1.1,1.27.73,2.28,1.74,3.01,3.01.73,1.27,1.1,2.65,1.1,4.14s-.38,2.94-1.15,4.21c-.77,1.27-1.8,2.27-3.1,2.99l5.48,9.76h-5.37Zm-9.62-20.75v7.53h5.51c1.03,0,1.92-.37,2.67-1.1.74-.73,1.12-1.62,1.12-2.65s-.37-1.95-1.1-2.68c-.73-.73-1.63-1.1-2.68-1.1h-5.51Z"/><path class="cls-2" d="m882.61,123.04v4.47h-6.95v20.75h-4.68v-20.75h-6.92v-4.47h18.55Z"/><path class="cls-2" d="m889.62,147.07c-1.68-1.1-2.86-2.59-3.53-4.47l3.96-2.34c.98,2.57,2.95,3.86,5.91,3.86,1.32,0,2.34-.31,3.06-.94.72-.62,1.08-1.34,1.08-2.16s-.39-1.48-1.17-1.98c-.78-.5-2.17-1.04-4.16-1.62-1.56-.48-2.88-1-3.96-1.57-1.08-.56-1.96-1.33-2.65-2.29-.68-.96-1.03-2.17-1.03-3.64s.37-2.79,1.12-3.91c.74-1.12,1.73-1.97,2.97-2.56,1.24-.59,2.59-.88,4.05-.88,2.04,0,3.81.49,5.31,1.46,1.5.97,2.66,2.34,3.48,4.09l-4.04,2.31c-.94-2.14-2.52-3.21-4.76-3.21-1.01,0-1.84.26-2.49.79s-.97,1.15-.97,1.87c0,.55.15,1.02.45,1.41.3.38.78.73,1.44,1.04.66.31,1.63.66,2.9,1.04,1.66.53,3.06,1.08,4.2,1.66,1.14.58,2.09,1.38,2.85,2.4.76,1.02,1.13,2.3,1.13,3.84s-.38,2.83-1.15,3.96c-.77,1.13-1.83,1.99-3.19,2.59-1.36.6-2.89.9-4.59.9-2.47,0-4.55-.55-6.23-1.66Z"/></svg>